<svg xmlns="http://www.w3.org/2000/svg" version="1.1" xmlns:xlink="http://www.w3.org/1999/xlink" xmlns:svgjs="http://svgjs.dev/svgjs" width="52.05" height="54"><svg id="SvgjsSvg1001" data-name="Mode Isolation" xmlns="http://www.w3.org/2000/svg" viewBox="0 0 52.05 54">
  <path d="m11.5,23.6l2.6.1c2.4,0,3.8-1.7,4.5-5.6l1-5.7c1-5.2.4-6.6-2.6-6.6h-2.2l-3.3,17.8Zm-4.5,24.6h3.2c2.7,0,3.8-1.5,4.7-6.4l.8-4.4c1.2-6.5.6-8-2.9-8h-2.4l-3.4,18.8ZM9.9,0h7.7C25.3,0,27.3,3.5,25.3,14.1c-1.6,8.8-3.3,10.6-6.6,12.2,3.4,2.1,4.4,4.3,2.8,13-1.3,7.2-2.8,14.7-11.6,14.7H0L9.9,0Zm29.5,5.8l-3.4,18.2h2.2c3.8,0,5.1-1.5,6.2-7l.9-4.9c.9-4.5-.1-6.2-3.3-6.2l-2.6-.1h0Zm-5-5.8h7.8c10,0,11,4.8,9,15.2-1.5,8-3.7,14.5-12.9,14.5h-3.4l-4.7,24.3h-6.2L34.4,0Z"></path>
</svg><style>@media (prefers-color-scheme: light) { :root { filter: none; } }
@media (prefers-color-scheme: dark) { :root { filter: none; } }
</style></svg>